<svg width="200" height="200" viewBox="0 0 200 200" fill="none" xmlns="http://www.w3.org/2000/svg">
  <rect width="200" height="200" fill="#2A2A2A"/>
  <path d="M100 70C89.5075 70 81 78.5075 81 89C81 99.4925 89.5075 108 100 108C110.492 108 119 99.4925 119 89C119 78.5075 110.492 70 100 70Z" fill="#404040"/>
  <path d="M140 130H60C57.2386 130 55 127.761 55 125V75C55 72.2386 57.2386 70 60 70H140C142.761 70 145 72.2386 145 75V125C145 127.761 142.761 130 140 130Z" stroke="#404040" stroke-width="2"/>
</svg> 